<?xml version="1.0" encoding="UTF-8" standalone="no"?>
<svg
   xmlns:dc="http://purl.org/dc/elements/1.1/"
   xmlns:cc="http://creativecommons.org/ns#"
   xmlns:rdf="http://www.w3.org/1999/02/22-rdf-syntax-ns#"
   xmlns:svg="http://www.w3.org/2000/svg"
   xmlns="http://www.w3.org/2000/svg"
   xmlns:sodipodi="http://sodipodi.sourceforge.net/DTD/sodipodi-0.dtd"
   xmlns:inkscape="http://www.inkscape.org/namespaces/inkscape"
   version="1.1"
   x="0px"
   y="0px"
   viewBox="0 0 509.69104 500.38446"
   xml:space="preserve"
   id="svg3741"
   sodipodi:docname="cart.svg"
   width="509.69104"
   height="500.38446"
   inkscape:version="0.92.3 (2405546, 2018-03-11)"><metadata
     id="metadata3747"><rdf:RDF><cc:Work
         rdf:about=""><dc:format>image/svg+xml</dc:format><dc:type
           rdf:resource="http://purl.org/dc/dcmitype/StillImage" /><dc:title></dc:title></cc:Work></rdf:RDF></metadata><defs
     id="defs3745" /><sodipodi:namedview
     pagecolor="#ffffff"
     bordercolor="#666666"
     borderopacity="1"
     objecttolerance="10"
     gridtolerance="10"
     guidetolerance="10"
     inkscape:pageopacity="0"
     inkscape:pageshadow="2"
     inkscape:window-width="1052"
     inkscape:window-height="930"
     id="namedview3743"
     showgrid="false"
     fit-margin-top="0"
     fit-margin-left="0"
     fit-margin-right="0"
     fit-margin-bottom="0"
     inkscape:zoom="1.325"
     inkscape:cx="252.2566"
     inkscape:cy="263.83027"
     inkscape:window-x="166"
     inkscape:window-y="13"
     inkscape:window-maximized="0"
     inkscape:current-layer="svg3741" /><g
     id="g3739"
     transform="matrix(1.2160836,0,0,1.1945914,-56.426279,-55.697824)"><path
       d="m 206.4,271.8 c -15.2,0 -27.6,12.4 -27.6,27.6 0,15.2 12.4,27.6 27.6,27.6 15.2,0 27.6,-12.4 27.6,-27.6 0,-15.2 -12.3,-27.6 -27.6,-27.6 z m 0,35.3 c -4.2,0 -7.6,-3.4 -7.6,-7.6 0,-4.2 3.4,-7.6 7.6,-7.6 4.2,0 7.6,3.4 7.6,7.6 0,4.2 -3.3,7.6 -7.6,7.6 z"
       id="path3731"
       inkscape:connector-curvature="0" /><path
       d="M 320.3,177.1 H 185 l -2,-11 c -2.2,-12.3 -11.9,-22 -24.2,-24.2 l -10.4,-1.8 c -5.4,-1 -10.6,2.7 -11.6,8.1 -1,5.4 2.7,10.6 8.1,11.6 l 10.4,1.8 c 4.1,0.7 7.3,3.9 8,8 l 14.1,79.4 c 2.2,12.4 12.9,21.4 25.5,21.4 h 83.5 c 11.5,0 21.5,-7.4 24.8,-18.4 l 18.7,-61.9 c 0.9,-3 0.3,-6.3 -1.5,-8.9 -2,-2.6 -5,-4.1 -8.1,-4.1 z m -28.3,69 c -0.8,2.5 -3,4.2 -5.6,4.2 h -83.5 c -2.9,0 -5.3,-2 -5.8,-4.9 l -8.6,-48.3 h 118.3 z"
       id="path3733"
       inkscape:connector-curvature="0" /><path
       d="m 281.9,271.8 c -15.2,0 -27.6,12.4 -27.6,27.6 0,15.2 12.4,27.6 27.6,27.6 15.2,0 27.6,-12.4 27.6,-27.6 0,-15.2 -12.4,-27.6 -27.6,-27.6 z m 0,35.3 c -4.2,0 -7.6,-3.4 -7.6,-7.6 0,-4.2 3.4,-7.6 7.6,-7.6 4.2,0 7.6,3.4 7.6,7.6 0,4.2 -3.4,7.6 -7.6,7.6 z"
       id="path3735"
       inkscape:connector-curvature="0" /><path
       d="m 372.6,358.5 c 31,-34.4 47.9,-78.4 47.9,-125 0,-49.9 -19.5,-96.9 -54.8,-132.2 -72.9,-72.9 -191.5,-72.9 -264.5,0 -35.3,35.3 -54.8,82.3 -54.8,132.2 0,49.9 19.5,96.9 54.8,132.2 35.3,35.3 82.3,54.8 132.2,54.8 46.6,0 90.6,-16.9 125,-47.9 l 90,90 c 2,2 4.5,2.9 7.1,2.9 2.6,0 5.1,-1 7.1,-2.9 3.9,-3.9 3.9,-10.2 0,-14.1 z m -139.1,42 C 188.9,400.5 147,383.1 115.4,351.6 83.9,320 66.5,278.1 66.5,233.5 66.5,188.9 83.9,147 115.4,115.4 148,82.8 190.7,66.6 233.5,66.6 c 42.8,0 85.5,16.3 118.1,48.8 31.5,31.5 48.9,73.5 48.9,118.1 0,44.6 -17.4,86.5 -48.9,118.1 -31.6,31.5 -73.5,48.9 -118.1,48.9 z"
       id="path3737"
       inkscape:connector-curvature="0" /></g></svg>