<?xml version="1.0" encoding="UTF-8" standalone="no"?>
<svg
   xmlns:dc="http://purl.org/dc/elements/1.1/"
   xmlns:cc="http://creativecommons.org/ns#"
   xmlns:rdf="http://www.w3.org/1999/02/22-rdf-syntax-ns#"
   xmlns:svg="http://www.w3.org/2000/svg"
   xmlns="http://www.w3.org/2000/svg"
   xmlns:sodipodi="http://sodipodi.sourceforge.net/DTD/sodipodi-0.dtd"
   xmlns:inkscape="http://www.inkscape.org/namespaces/inkscape"
   version="1.1"
   x="0px"
   y="0px"
   viewBox="0 0 91.664062 90.768311"
   enable-background="new 0 0 100 100"
   xml:space="preserve"
   id="svg3864"
   sodipodi:docname="logo1.svg"
   width="91.664062"
   height="90.768311"
   inkscape:version="0.92.3 (2405546, 2018-03-11)"><metadata
     id="metadata3870"><rdf:RDF><cc:Work
         rdf:about=""><dc:format>image/svg+xml</dc:format><dc:type
           rdf:resource="http://purl.org/dc/dcmitype/StillImage" /><dc:title></dc:title></cc:Work></rdf:RDF></metadata><defs
     id="defs3868" /><sodipodi:namedview
     pagecolor="#ffffff"
     bordercolor="#666666"
     borderopacity="1"
     objecttolerance="10"
     gridtolerance="10"
     guidetolerance="10"
     inkscape:pageopacity="0"
     inkscape:pageshadow="2"
     inkscape:window-width="640"
     inkscape:window-height="480"
     id="namedview3866"
     showgrid="false"
     fit-margin-top="0"
     fit-margin-left="0"
     fit-margin-right="0"
     fit-margin-bottom="0"
     inkscape:zoom="1.888"
     inkscape:cx="46.331544"
     inkscape:cy="33.3795"
     inkscape:window-x="292"
     inkscape:window-y="35"
     inkscape:window-maximized="0"
     inkscape:current-layer="svg3864" /><path
     stroke-miterlimit="10"
     d="m 90.940544,11.071804 c -0.729,-4.0930003 -1.972,-5.5590003 -1.972,-5.5590003 -0.431,-2.56 -1.467,-2.914 -2.817,-2.686 -1.35,0.228 -0.053,2.03 0.376,4.59 l -1.063,8.1910003 c -0.604,-0.223 -1.232,-0.382 -1.872,-0.46 -3.194,-0.396 -6.906,2.752 -8.91,6.194 -0.054,-0.008 -0.108,-0.015 -0.161,-0.021 -1.102,-3.835 -3.938,-7.81 -7.138,-8.207 -0.639,-0.079 -1.289,-0.079 -1.93,-0.011 l 0.953,-8.0550003 c 1.044,-2.377 2.74,-3.808 1.485,-4.35899997 -1.255,-0.551 -2.346,-0.461 -3.388,1.91699997 0,0 -1.563,1.118 -3.271,4.91 -1.431,3.1880003 -2.498,9.3980003 -2.498,9.3980003 -0.143,0.833 -0.193,1.238 -0.157,1.417 -0.143,0.564 -0.205,1.16 -0.157,1.783 0.211,2.811 0.528,4.949 1.002,6.61 0.407,4.101 1.502,8.752 1.009,12.735 -0.821,6.635 -5.092,13.038 -7.17,18.282 -0.174,0.332 -0.353,0.764 -0.559,1.323 -2.442,6.674 -6.461,23.658 -6.461,23.658 -0.177,1.421 4.34,2.654 5.713,3.462 0,0 4.308,2.345 14.271,3.578 10.884,1.348 14.468,-0.02 14.468,-0.02 1.367,-0.404 7.475,-0.835 7.652,-2.255 0,0 -0.672,-17.609 -2.104,-24.572 0,-0.004 -0.001,-0.008 -0.001,-0.012 -0.735,-5.72 -4.351,-13.614 -3.471,-20.679 0.44,-3.539 2.553,-7.082 4.297,-10.554 1.21,-1.569 2.305,-3.941 3.504,-7.549 0.211,-0.631 0.297,-1.261 0.281,-1.88 0.091,-0.138 0.146,-0.539 0.215,-1.445 0.004,0.002 0.487,-6.282 -0.126,-9.724 z"
     id="path3856"
     inkscape:connector-curvature="0"
     style="stroke:#000000;stroke-width:0.82499999;stroke-miterlimit:10" /><path
     stroke-miterlimit="10"
     d="m 48.155544,59.616804 c 2.244,-5.662 6.852,-12.572 7.741,-19.735 0.533,-4.302 -0.649,-9.323 -1.09,-13.75 -0.51,-1.792 -0.856,-4.101 -1.08,-7.135 -0.052,-0.673 0.015,-1.316 0.171,-1.926 -0.04,-0.193 0.013,-0.63 0.168,-1.529 0,0 0.13,-0.757 0.36,-1.882 -0.934,-0.229 -1.874,-0.416 -2.74,-0.543 -0.014,-0.048 -0.025,-0.092 -0.047,-0.126 l -0.287,-2.325 c -0.05,-0.406 -0.419,-0.6940003 -0.82,-0.645 0,0 -3.738,2.979 -11.821,3.77 -8.753,0.858 -12.52,-0.8 -12.52,-0.8 -0.407,0.049 -0.694,0.418 -0.646,0.824 l 0.284,2.323 c -0.01,0.037 -0.016,0.083 -0.009,0.139 -2.244,0.92 -4.892,2.368 -6.479,3.839 -0.184,0.127 -0.362,0.27 -0.521,0.445 l -14.2959997,13.784 c -0.32,-0.292 -0.804,-0.287 -1.079,0.016 l -2.85099998,3.133 c -0.274,0.302 -0.236,0.784 0.085,1.078 l 14.19799968,12.918 c 0.321,0.292 0.805,0.287 1.079,-0.017 l 2.85,-3.131 c 0.194,-0.215 0.225,-0.519 0.117,-0.781 l 1.779,-2.247 4.627,37.953 c 0.347,2.84 2.658,2.655 5.497,2.309 l 10.297,-1.255 c 1.247,-5.129 4.361,-17.628 6.43,-23.278 0.221,-0.603 0.416,-1.065 0.603,-1.426 z m -31.146,-11.508 -1.487,1.634 c -0.144,0.159 -0.484,0.083 -0.758,-0.166 l -12.1249997,-11.035 c -0.274,-0.25 -0.382,-0.583 -0.237,-0.738 l 1.49,-1.635 c 0.143,-0.157 0.481,-0.081 0.756,0.168 l 12.1259997,11.034 c 0.271,0.248 0.378,0.58 0.235,0.738 z m 10.01,-31.951 -0.151,-1.245 c -0.021,-0.165 0.257,-0.334 0.621,-0.38 0,0 3.363,1.348 11.208,0.476 7.245,-0.804 10.638,-3.14 10.638,-3.14 0.362,-0.043 0.675,0.053 0.694,0.22 l 0.153,1.244 c 0.34,0.259 -1.268,2.37 -11.308,3.592 -10.678,1.299 -12.057,-0.525 -11.855,-0.767 z"
     id="path3858"
     inkscape:connector-curvature="0"
     style="stroke:#000000;stroke-width:0.82499999;stroke-miterlimit:10" /><path
     style="stroke-width:0.529661;fill:#800000"
     d="M 66.193833,89.944759 C 60.504057,89.22836 54.415097,87.546676 50.100633,85.500055 l -3.910996,-1.855233 0.313865,-2.243475 C 47.335544,75.454001 52.240266,59.557259 55.243869,53.072857 60.545744,41.626779 60.8676,40.013454 59.65163,30.978674 57.860985,17.674007 58.831192,10.470354 63.318859,3.7500203 c 1.632828,-2.4451805 2.476521,-3.24680311 3.4172,-3.24680311 1.78284,0 2.001134,0.72509921 0.824905,2.74005801 -0.592187,1.0144551 -1.181397,3.348309 -1.388732,5.5007518 l -0.360131,3.738691 2.13806,0.640579 c 2.245718,0.672833 4.414537,2.820028 5.815172,5.757189 l 0.821728,1.723183 2.541946,-2.377693 c 2.922562,-2.733715 4.800806,-3.598038 6.843754,-3.149331 1.437844,0.315804 1.440934,0.309902 1.859976,-3.553338 0.230857,-2.128316 0.380974,-4.0321851 0.333592,-4.2308197 -0.04738,-0.198635 -0.244557,-1.351795 -0.438169,-2.5625778 -0.335427,-2.0976473 -0.292299,-2.1929808 0.914876,-2.0223208 0.949035,0.1341664 1.661245,0.9764507 2.838634,3.3570692 1.515888,3.0650445 1.571818,3.4414497 1.574051,10.5932201 l 0.0023,7.415254 -3.906213,7.836728 c -5.072587,10.1767 -5.249614,11.833922 -2.50106,23.413272 1.037223,4.369704 2.136027,9.970869 2.441787,12.447034 0.829447,6.717188 1.564415,19.805191 1.137686,20.259439 -0.205199,0.218432 -2.506343,0.868729 -5.113652,1.445101 -5.018792,1.109465 -10.610847,1.264793 -16.922767,0.470053 z"
     id="path3872"
     inkscape:connector-curvature="0" /><path
     style="fill:#008000;stroke-width:0.529661"
     d="M 25.977428,84.946316 C 25.51965,84.48854 25.148777,83.952259 25.153267,83.754578 25.173474,82.864965 20.811284,47.299824 20.603915,46.663498 20.463222,46.231772 19.682101,46.948437 18.631134,48.473491 15.700275,52.72645 16.089347,52.842294 7.7362992,45.229638 3.6194044,41.477655 0.25103594,38.229762 0.25103594,38.012099 c 0,-0.67434 3.25296306,-4.139722 3.89491116,-4.149249 0.3339641,-0.005 4.3076264,-3.520581 8.8303609,-7.8125 4.961888,-4.70866 9.127526,-8.210633 10.503494,-8.830087 1.874139,-0.843729 2.239811,-1.238616 2.052816,-2.21682 -0.375376,-1.963652 0.214214,-2.359371 2.549086,-1.710886 3.623262,1.006322 13.114055,0.281306 17.720179,-1.35367 2.184852,-0.775529 4.389566,-1.548488 4.899365,-1.717687 0.750302,-0.2490207 0.926907,0.0069 0.926907,1.343123 0,1.431433 0.185956,1.650759 1.399608,1.650759 1.384428,0 1.396456,0.03302 1.10921,3.04555 -0.159719,1.675053 -0.08858,4.356462 0.158078,5.958687 2.01724,13.103282 2.189851,15.53415 1.378935,19.419658 -0.456313,2.186445 -2.264544,6.969271 -4.266611,11.28531 -3.658665,7.887328 -5.51897,13.327156 -8.427931,24.644608 l -1.769825,6.885593 -4.721876,0.621542 c -6.762818,0.89019 -9.524497,0.856107 -10.510315,-0.129714 z M 16.560829,47.890943 C 16.352479,47.026005 4.9136366,36.554841 4.1559325,36.53545 c -0.3284721,-0.0084 -0.8736827,0.317831 -1.211579,0.724971 -0.4968666,0.598688 0.6152029,1.868747 5.8150098,6.641139 5.2757797,4.84212 6.5663777,5.787175 7.1929817,5.26714 0.419989,-0.34856 0.693806,-0.92355 0.608484,-1.277757 z M 42.584545,16.053928 c 5.007611,-0.885586 7.454627,-1.929125 7.454627,-3.179054 0,-0.926168 -0.0234,-0.921763 -5.03178,0.947217 -2.703954,1.009036 -4.266126,1.190464 -10.473412,1.216363 -6.187728,0.02582 -7.272647,0.151074 -7.145295,0.824933 0.298993,1.582067 6.862034,1.664361 15.19586,0.190541 z"
     id="path3874"
     inkscape:connector-curvature="0" /></svg>