<?xml version="1.0" encoding="UTF-8" standalone="no"?>
<svg
   xmlns:ns="http://ns.adobe.com/SaveForWeb/1.0/"
   xmlns:dc="http://purl.org/dc/elements/1.1/"
   xmlns:cc="http://creativecommons.org/ns#"
   xmlns:rdf="http://www.w3.org/1999/02/22-rdf-syntax-ns#"
   xmlns:svg="http://www.w3.org/2000/svg"
   xmlns="http://www.w3.org/2000/svg"
   xmlns:sodipodi="http://sodipodi.sourceforge.net/DTD/sodipodi-0.dtd"
   xmlns:inkscape="http://www.inkscape.org/namespaces/inkscape"
   version="1.1"
   x="0px"
   y="0px"
   viewBox="0 0 81.31855 92.5"
   enable-background="new 0 0 100 100"
   xml:space="preserve"
   id="svg837"
   sodipodi:docname="trash1.svg"
   width="81.31855"
   height="92.5"
   inkscape:version="0.92.3 (2405546, 2018-03-11)"><defs
     id="defs841" /><sodipodi:namedview
     pagecolor="#ffffff"
     bordercolor="#666666"
     borderopacity="1"
     objecttolerance="10"
     gridtolerance="10"
     guidetolerance="10"
     inkscape:pageopacity="0"
     inkscape:pageshadow="2"
     inkscape:window-width="1920"
     inkscape:window-height="1017"
     id="namedview839"
     showgrid="false"
     fit-margin-top="0"
     fit-margin-left="0"
     fit-margin-right="0"
     fit-margin-bottom="0"
     inkscape:zoom="6.784"
     inkscape:cx="40.705336"
     inkscape:cy="33.8"
     inkscape:window-x="-8"
     inkscape:window-y="-8"
     inkscape:window-maximized="1"
     inkscape:current-layer="svg837" /><metadata
     id="metadata829"><ns:sfw><ns:slices /><ns:sliceSourceBounds
         width="1549.7"
         height="1444.2"
         x="-103.4"
         y="-1447"
         bottomLeftOrigin="true" /></ns:sfw><rdf:RDF><cc:Work
         rdf:about=""><dc:format>image/svg+xml</dc:format><dc:type
           rdf:resource="http://purl.org/dc/dcmitype/StillImage" /><dc:title></dc:title></cc:Work></rdf:RDF></metadata><path
     d="m 77.005336,14.2 c -4.5,-0.3 -9.1,-0.5 -13.6,-0.5 -1.6,0 -3.3,0 -4.9,0.1 0.4,-0.5 0.7,-1.2 0.8,-2 0.1,-1.5 0.3,-3 0.4,-4.4 0.1,-2.3 -1.1,-4.7 -3.2,-5.9 -0.4,-0.2 -0.8,-0.4 -1.3,-0.6 -0.2,-0.1 -0.5,-0.1 -0.7,-0.2 -0.2,-0.1 -0.5,-0.1 -0.8,-0.1 -0.2,0 -0.3,0 -0.5,0 h -0.2 -0.1 -0.1 -0.2 -0.9 l -3.6,0.1 -7.2,0.3 c -2,-0.4 -4.2,-0.7 -6.3,-0.8 -1.1,-0.1 -2.2,-0.1 -3.2,-0.2 h -1.6 -0.8 c -0.3,0 -0.5,0 -1,0 -1.8,0.1 -3.6,1 -4.9,2.4 -0.6,0.7 -1.1,1.5 -1.4,2.4 -0.1,0.2 -0.2,0.4 -0.2,0.7 -0.1,0.2 -0.1,0.4 -0.2,0.7 l -0.1,0.4 v 0.2 0.1 0.2 0.4 c 0,1.9 0,3.9 -0.1,5.8 -6.4,0 -12.8000004,0.1 -19.1000004,0 -0.6,0 -1.49999998,0.5 -1.79999998,0.9 -0.6,0.7 0.2,1.4 1.29999998,1.8 2.3,1 4.9,1.6 7.7,2 -0.8,1.6 -1.4,5.2 -1.5,9.9 -0.3,11 -0.5,22 -0.5,33 l 0.1,13.3 v 3.3 0.8 0.4 0.5 c 0,0.7 0.1,1.3 0.2,2 0.3,1.3 0.7,2.6 1.4,3.8 0.7,1.2 1.5000004,2.2 2.4000004,3.2 1.9,1.8 4.4,3.1 7,3.6 l 1.1,0.1 h 0.8 0.2 0.3 0.4 0.8 3.3 l 13.3,-0.2 c 4,0.2 7.9,0.4 11.9,0.5 2,0.1 4,0.1 6,0.2 l 3,0.1 h 0.8 c 0.3,0 0.5,0 0.8,0 0.6,0 1.2,0 1.9,-0.1 2.5,-0.3 4.9,-1.4 6.8,-3 1,-0.8 1.8,-1.8 2.6,-2.8 0.7,-1.1 1.3,-2.2 1.7,-3.4 0.1,-0.3 0.2,-0.6 0.3,-0.9 0.1,-0.3 0.2,-0.6 0.2,-0.9 l 0.2,-1 v -0.3 -0.2 -0.4 -0.4 -0.2 -0.3 -0.8 -1.5 -6 c 0,-16.1 -0.1,-32.2 0,-48.3 0,-0.8 -0.2,-2 -0.4,-2.9 0.9,-0.1 1.8,-0.1 2.7,-0.2 2.4,-0.2 4.5,-0.9 4.3,-2.2 0,-1.4 -1.7,-2.4 -4.3,-2.5 z m -51.1,-6.1 0.1,-0.6 v -0.1 -0.1 0 0 0 c 0,0.2 0,0.1 0,0.1 v 0 0 V 7.1 7 c 0,0 0,0 0,0 0,0 0,0 0,-0.1 0,-0.1 0.1,-0.2 0.1,-0.3 0.2,-0.4 0.5,-0.7 0.9,-0.9 0.2,-0.1 0.4,-0.2 0.6,-0.2 0.1,0 0.2,0 0.3,0 0,0 0.1,0 0.1,0 h 0.2 c 1.8,0.1 3.6,0.2 5.4,0.3 3.6,0.2 7.2,0.2 10.8,0 0.9,0.1 1.8,0.1 2.7,0.2 1.4,0.1 2.8,0.1 4.2,0.1 h 1.1 0.3 v 0 0 h 0.1 0.3 0.1 v 0 0 c 0,0 0,0 0,0 0,0 0,0 0.1,0 0.1,0 0.1,0 0.1,0 0.1,0 0.2,0.1 0.3,0.2 0.2,0.1 0.3,0.3 0.4,0.5 0.1,0.1 0.1,0.2 0.1,0.3 0,0.1 0,0.1 0,0.2 0,0 0,0 0,0.1 v 0.3 c 0.1,1.4 0.2,2.8 0.3,4.2 0.1,0.8 0.3,1.5 0.7,2 -4.6,0.1 -9.2,0.3 -13.8,0.4 -5.7,-0.8 -11.5,-1 -17.2,-1.1 0.5,-0.9 0.9,-1.9 1.2,-3 0.3,-0.7 0.4,-1.4 0.5,-2.1 z m 46.2,12.5 c -1.6,9 -2.2,19.8 -2.4,30.9 -0.1,6.7 -0.2,13.3 -0.3,20 l -0.1,5 v 1.2 0.6 0.1 0 0.1 0.3 0.6 c 0,0.2 -0.1,0.3 -0.1,0.4 l -0.1,0.4 -0.1,0.5 c -0.7,2.5 -2.6,4.5 -4.9,5.5 -0.3,0.1 -0.6,0.2 -0.9,0.3 -0.3,0.1 -0.6,0.2 -0.9,0.2 -0.3,0 -0.6,0.1 -0.9,0.1 h -0.5 c -0.2,0 -0.4,0 -0.6,0 h -5 c -3.3,0 -6.7,0 -10,0 -6.7,0 -13.4,0.1 -20.1,0.2 h -2.5 -1.2 -0.6 -0.1 -0.2 -0.3 -0.6 l -0.4,-0.1 c -0.2,0 -0.5,-0.1 -0.8,-0.2 -0.6,-0.2 -1.2,-0.4 -1.7,-0.7 -1.7,-1 -3,-2.5 -3.7,-4.4 -0.3,-0.9 -0.5,-1.9 -0.5,-2.8 v -3.9 c 0,-5.3 0,-10.5 0,-15.8 0,-10.5 -0.2,-21 -0.5,-31.5 -0.1,-4.1 -0.5,-7.7 -1.1,-9.4 1,0.1 2.1,0.2 3.1,0.2 11,0.4 21.9,1.1 33,0.6 1.4,0.1 2.7,0.1 4.1,0.2 7.1,0.2 14.2,0.3 21.2,0 -0.1,0.3 -0.2,0.8 -0.3,1.4 z m -28.3,10.9 c -0.4,7.3 0.6,14.7 -1.1,21.9 0.2,4 0.5,8 0.6,12.1 0,2.5 -0.3,5 -0.5,7.5 -0.1,1.4 -1.1,2.3 -2.3,2.4 -1.4,0.1 -2.1,-1 -2.2,-2.4 -0.6,-4.8 -0.5,-9.5 -0.3,-14.3 0,-0.8 0.1,-1.5 0.2,-2.3 -0.5,-6.1 0.2,-12.1 0.6,-18.2 0.2,-2.5 0.9,-5 2.4,-7 0.5,-0.6 1.1,-1 1.8,-0.7 0.2,0.2 0.8,0.7 0.8,1 z m 16.6,0 c -0.4,7.3 0.6,14.7 -1.1,21.9 0.2,4 0.5,8 0.6,12.1 0,2.5 -0.3,5 -0.5,7.5 -0.1,1.4 -1.1,2.3 -2.3,2.4 -1.4,0.1 -2.1,-1 -2.2,-2.4 -0.6,-4.8 -0.5,-9.5 -0.3,-14.3 0,-0.8 0.1,-1.5 0.2,-2.3 -0.5,-6.1 0.2,-12.1 0.6,-18.2 0.2,-2.5 0.9,-5 2.4,-7 0.5,-0.6 1.1,-1 1.8,-0.7 0.3,0.2 0.8,0.7 0.8,1 z m -33.3,0 c -0.4,7.3 0.6,14.7 -1.1,21.9 0.2,4 0.5,8 0.6,12.1 0,2.5 -0.3,5 -0.5,7.5 -0.1,1.4 -1.1,2.3 -2.3,2.4 -1.4,0.1 -2.1,-1 -2.2,-2.4 -0.6,-4.8 -0.5,-9.5 -0.3,-14.3 0,-0.8 0.1,-1.5 0.2,-2.3 -0.5,-6.1 0.2,-12.1 0.6,-18.2 0.2,-2.5 0.9,-5 2.4,-7 0.5,-0.6 1.1,-1 1.8,-0.7 0.3,0.2 0.8,0.7 0.8,1 z"
     id="path831"
     inkscape:connector-curvature="0" /><path
     style="fill:#ff0000;stroke:#000000;stroke-width:0.4242335;stroke-linejoin:round;stroke-miterlimit:4;stroke-dasharray:none;stroke-opacity:1"
     d="m 50.846845,92.173495 c -2.959168,-0.107152 -6.769019,-0.26852 -8.466337,-0.358598 -2.069408,-0.109825 -6.488309,-0.131005 -13.413915,-0.0643 l -10.327884,0.09948 -1.17657,-0.325121 C 15.23719,90.91014 12.85726,89.588113 11.43158,88.175047 10.61034,87.361072 9.1763485,85.402804 8.6766314,84.41287 8.4415984,83.947272 8.070395,82.982829 7.851735,82.269662 L 7.4541715,80.972995 7.359918,70.94941 C 7.2140994,55.44205 7.5485717,29.560292 7.9590206,24.59033 8.1516746,22.257559 8.4626964,20.427297 8.9010061,19.04705 L 9.2448944,17.964139 8.7089006,17.871073 C 5.5933754,17.330118 2.6016834,16.471896 0.99715195,15.658818 0.50417757,15.409009 0.26222147,15.183849 0.1937985,14.911229 0.06822194,14.410893 0.25002018,14.13015 0.96416311,13.721588 L 1.539652,13.39235 l 9.839328,-0.0024 9.839328,-0.0024 0.0052,-3.279776 c 0.0059,-3.6914982 0.119418,-4.4231392 0.945534,-6.0946702 0.84046,-1.7005554 2.377718,-3.0086044 4.239248,-3.60716662 0.979235,-0.31486606 1.169229,-0.32429221 4.879356,-0.24208005 3.642292,0.080709 6.670761,0.33532316 8.503725,0.71493839 0.612238,0.12679718 2.128009,0.12191708 6.191038,-0.019932 2.959168,-0.10331099 6.176297,-0.15866962 7.149174,-0.12301918 1.641144,0.0601386 1.843374,0.10082682 2.800708,0.56349806 1.302675,0.6295702 2.381494,1.6942391 2.988254,2.9490567 0.746634,1.5440856 0.818463,2.3351465 0.49651,5.4680768 -0.249211,2.4250831 -0.407662,3.1535851 -0.866442,3.9835971 -0.02779,0.05028 3.119508,0.128088 6.993996,0.172911 10.205322,0.118061 13.053593,0.343759 14.457607,1.145624 0.83905,0.479203 1.210148,1.03503 1.210148,1.812552 0,1.099542 -1.569498,1.754015 -4.887886,2.038224 l -2.060025,0.176434 0.120476,0.745453 c 0.06626,0.41 0.120478,14.509457 0.120478,31.332128 v 30.586675 l -0.421719,1.105542 c -1.483563,3.889188 -3.866534,6.659598 -7.09597,8.249677 -2.252018,1.108828 -2.912685,1.227173 -7.075471,1.267432 -2.026828,0.0196 -6.10628,-0.05203 -9.065449,-0.15918 z m -2.284787,-5.316156 c 15.181687,-0.09546 14.581761,-0.05896 16.362028,-0.995418 1.138547,-0.598899 2.814875,-2.275394 3.419705,-3.420045 1.056539,-1.999518 1.0292,-1.634767 1.214987,-16.209447 0.234079,-18.36319 0.424715,-24.60579 0.974571,-31.913325 0.378308,-5.027705 1.038741,-10.486084 1.667596,-13.782429 l 0.253089,-1.326651 -8.997875,-0.01325 c -18.968871,-0.02792 -26.569832,-0.08016 -31.624644,-0.217357 -6.66231,-0.18083 -19.654307,-0.699624 -20.378832,-0.813765 -0.304024,-0.0479 -0.552054,-0.06467 -0.551176,-0.03727 8.84e-4,0.0274 0.09829,0.368503 0.216476,0.758018 0.939502,3.096451 1.248026,12.483274 1.350251,41.081295 0.07594,21.244883 0.049,20.612834 0.960362,22.531999 0.326978,0.688559 0.797316,1.312138 1.584607,2.100888 1.196011,1.198229 1.842223,1.597991 3.4781,2.15164 l 1.03184,0.349217 7.591391,-0.07848 c 4.175265,-0.04317 13.826651,-0.117692 21.447524,-0.165611 z m 0.663325,-72.736024 c 2.553803,-0.07931 4.954629,-0.1442 5.335167,-0.144197 l 0.691888,5e-6 -0.301532,-0.681661 C 54.716536,12.765629 54.600774,11.96945 54.431172,9.7208743 54.258946,7.4375156 54.157893,6.7502986 53.951589,6.459434 L 53.690209,6.0909198 49.72578,5.9664419 C 47.545343,5.8979792 43.705041,5.8527818 41.191775,5.8660034 38.678508,5.8792242 35.328715,5.8197532 33.747789,5.733844 26.810973,5.35689 27.394724,5.3557895 26.823513,5.7468983 c -0.671119,0.4595166 -0.831595,0.8269844 -1.023798,2.3443558 -0.166129,1.3115314 -0.761497,3.2808469 -1.326966,4.3892449 -0.179792,0.352417 -0.300308,0.667345 -0.267812,0.69984 0.03249,0.03249 1.977348,0.125442 4.321898,0.206549 4.4664,0.15451 8.881843,0.463531 11.351228,0.794431 0.803614,0.107684 2.190775,0.170682 3.08258,0.139994 0.891804,-0.03069 3.710937,-0.120687 6.26474,-0.199998 z"
     id="path825"
     inkscape:connector-curvature="0" /><path
     style="fill:#ff0000;stroke:#000000;stroke-width:0.4242335;stroke-linejoin:round;stroke-miterlimit:4;stroke-dasharray:none;stroke-opacity:1"
     d="m 22.496117,74.857715 c -0.316738,-0.2781 -0.5617,-0.671577 -0.66532,-1.068691 -0.521674,-1.999266 -0.62154,-6.4775 -0.438067,-19.643859 0.0737,-5.289065 0.185719,-8.102482 0.473492,-11.892335 0.490163,-6.455248 0.788093,-7.858242 2.160139,-10.17239 0.929815,-1.568264 1.761676,-1.963677 2.564961,-1.219218 l 0.40427,0.374666 -0.07288,8.285417 c -0.07326,8.328371 -0.132166,9.375356 -0.695706,12.365678 -0.288435,1.530521 -0.290432,1.680349 -0.07173,5.380306 0.400111,6.768889 0.422559,9.624524 0.103795,13.203799 -0.26108,2.931558 -0.317736,3.255389 -0.660049,3.772659 -0.73403,1.109194 -2.206939,1.400637 -3.102906,0.613968 z"
     id="path827"
     inkscape:connector-curvature="0" /><path
     style="fill:#ff0000;stroke:#000000;stroke-width:0.4242335;stroke-linejoin:round;stroke-miterlimit:4;stroke-dasharray:none;stroke-opacity:1"
     d="m 39.29449,74.992805 c -0.624702,-0.49307 -0.817804,-1.11153 -1.046339,-3.351184 -0.324513,-3.180244 -0.406781,-7.00912 -0.23816,-11.08431 0.08554,-2.067364 0.180197,-6.279481 0.210345,-9.360259 0.05378,-5.495489 0.426659,-11.831669 0.850128,-14.445755 0.509056,-3.142422 2.236177,-6.26474 3.465363,-6.26474 0.231926,0 0.533035,0.161494 0.757124,0.406069 l 0.372056,0.40607 -0.02602,7.443282 c -0.01431,4.093805 -0.09297,8.206106 -0.174794,9.138447 -0.156413,1.782222 -0.500931,4.181283 -0.711068,4.951549 -0.07414,0.271773 -0.01492,2.383694 0.146751,5.232901 0.335858,5.919112 0.348026,8.931307 0.05042,12.481754 -0.318208,3.796241 -0.722863,4.574381 -2.452585,4.716251 -0.647377,0.0531 -0.851951,0.0072 -1.203221,-0.270075 z"
     id="path829"
     inkscape:connector-curvature="0" /><path
     style="fill:#ff0000;stroke:#000000;stroke-width:0.4242335;stroke-linejoin:round;stroke-miterlimit:4;stroke-dasharray:none;stroke-opacity:1"
     d="m 55.815517,74.862739 c -0.272577,-0.239327 -0.568921,-0.687071 -0.658541,-0.994988 -0.534423,-1.83618 -0.637309,-6.397803 -0.451486,-20.017397 0.09762,-7.154817 0.601274,-15.517543 1.065322,-17.688679 0.453259,-2.120659 1.349426,-4.103443 2.312939,-5.117417 0.671074,-0.706219 1.225096,-0.745347 1.816289,-0.128274 l 0.411418,0.429428 -0.07377,8.156952 c -0.07552,8.349757 -0.165031,9.84586 -0.765121,12.788037 -0.224847,1.102395 -0.224014,1.475682 0.01194,5.35245 0.450916,7.408737 0.240486,14.912171 -0.459577,16.387445 -0.329836,0.695078 -1.280748,1.267581 -2.105417,1.267581 -0.4636,0 -0.726343,-0.103559 -1.10399,-0.435138 z"
     id="path832"
     inkscape:connector-curvature="0" /></svg>