<?xml version="1.0" encoding="UTF-8" standalone="no"?>
<svg
   xmlns:ns="http://ns.adobe.com/SaveForWeb/1.0/"
   xmlns:dc="http://purl.org/dc/elements/1.1/"
   xmlns:cc="http://creativecommons.org/ns#"
   xmlns:rdf="http://www.w3.org/1999/02/22-rdf-syntax-ns#"
   xmlns:svg="http://www.w3.org/2000/svg"
   xmlns="http://www.w3.org/2000/svg"
   xmlns:sodipodi="http://sodipodi.sourceforge.net/DTD/sodipodi-0.dtd"
   xmlns:inkscape="http://www.inkscape.org/namespaces/inkscape"
   version="1.1"
   x="0px"
   y="0px"
   viewBox="0 0 81.31855 92.5"
   enable-background="new 0 0 100 100"
   xml:space="preserve"
   id="svg837"
   sodipodi:docname="trash.svg"
   width="81.31855"
   height="92.5"
   inkscape:version="0.92.3 (2405546, 2018-03-11)"><defs
     id="defs841" /><sodipodi:namedview
     pagecolor="#ffffff"
     bordercolor="#666666"
     borderopacity="1"
     objecttolerance="10"
     gridtolerance="10"
     guidetolerance="10"
     inkscape:pageopacity="0"
     inkscape:pageshadow="2"
     inkscape:window-width="1920"
     inkscape:window-height="1017"
     id="namedview839"
     showgrid="false"
     fit-margin-top="0"
     fit-margin-left="0"
     fit-margin-right="0"
     fit-margin-bottom="0"
     inkscape:zoom="6.784"
     inkscape:cx="40.705336"
     inkscape:cy="33.8"
     inkscape:window-x="-8"
     inkscape:window-y="-8"
     inkscape:window-maximized="1"
     inkscape:current-layer="svg837" /><metadata
     id="metadata829"><ns:sfw><ns:slices /><ns:sliceSourceBounds
         width="1549.7"
         height="1444.2"
         x="-103.4"
         y="-1447"
         bottomLeftOrigin="true" /></ns:sfw><rdf:RDF><cc:Work
         rdf:about=""><dc:format>image/svg+xml</dc:format><dc:type
           rdf:resource="http://purl.org/dc/dcmitype/StillImage" /><dc:title></dc:title></cc:Work></rdf:RDF></metadata><path
     d="m 77.005336,14.2 c -4.5,-0.3 -9.1,-0.5 -13.6,-0.5 -1.6,0 -3.3,0 -4.9,0.1 0.4,-0.5 0.7,-1.2 0.8,-2 0.1,-1.5 0.3,-3 0.4,-4.4 0.1,-2.3 -1.1,-4.7 -3.2,-5.9 -0.4,-0.2 -0.8,-0.4 -1.3,-0.6 -0.2,-0.1 -0.5,-0.1 -0.7,-0.2 -0.2,-0.1 -0.5,-0.1 -0.8,-0.1 -0.2,0 -0.3,0 -0.5,0 h -0.2 -0.1 -0.1 -0.2 -0.9 l -3.6,0.1 -7.2,0.3 c -2,-0.4 -4.2,-0.7 -6.3,-0.8 -1.1,-0.1 -2.2,-0.1 -3.2,-0.2 h -1.6 -0.8 c -0.3,0 -0.5,0 -1,0 -1.8,0.1 -3.6,1 -4.9,2.4 -0.6,0.7 -1.1,1.5 -1.4,2.4 -0.1,0.2 -0.2,0.4 -0.2,0.7 -0.1,0.2 -0.1,0.4 -0.2,0.7 l -0.1,0.4 v 0.2 0.1 0.2 0.4 c 0,1.9 0,3.9 -0.1,5.8 -6.4,0 -12.8000004,0.1 -19.1000004,0 -0.6,0 -1.49999998,0.5 -1.79999998,0.9 -0.6,0.7 0.2,1.4 1.29999998,1.8 2.3,1 4.9,1.6 7.7,2 -0.8,1.6 -1.4,5.2 -1.5,9.9 -0.3,11 -0.5,22 -0.5,33 l 0.1,13.3 v 3.3 0.8 0.4 0.5 c 0,0.7 0.1,1.3 0.2,2 0.3,1.3 0.7,2.6 1.4,3.8 0.7,1.2 1.5000004,2.2 2.4000004,3.2 1.9,1.8 4.4,3.1 7,3.6 l 1.1,0.1 h 0.8 0.2 0.3 0.4 0.8 3.3 l 13.3,-0.2 c 4,0.2 7.9,0.4 11.9,0.5 2,0.1 4,0.1 6,0.2 l 3,0.1 h 0.8 c 0.3,0 0.5,0 0.8,0 0.6,0 1.2,0 1.9,-0.1 2.5,-0.3 4.9,-1.4 6.8,-3 1,-0.8 1.8,-1.8 2.6,-2.8 0.7,-1.1 1.3,-2.2 1.7,-3.4 0.1,-0.3 0.2,-0.6 0.3,-0.9 0.1,-0.3 0.2,-0.6 0.2,-0.9 l 0.2,-1 v -0.3 -0.2 -0.4 -0.4 -0.2 -0.3 -0.8 -1.5 -6 c 0,-16.1 -0.1,-32.2 0,-48.3 0,-0.8 -0.2,-2 -0.4,-2.9 0.9,-0.1 1.8,-0.1 2.7,-0.2 2.4,-0.2 4.5,-0.9 4.3,-2.2 0,-1.4 -1.7,-2.4 -4.3,-2.5 z m -51.1,-6.1 0.1,-0.6 v -0.1 -0.1 0 0 0 c 0,0.2 0,0.1 0,0.1 v 0 0 V 7.1 7 c 0,0 0,0 0,0 0,0 0,0 0,-0.1 0,-0.1 0.1,-0.2 0.1,-0.3 0.2,-0.4 0.5,-0.7 0.9,-0.9 0.2,-0.1 0.4,-0.2 0.6,-0.2 0.1,0 0.2,0 0.3,0 0,0 0.1,0 0.1,0 h 0.2 c 1.8,0.1 3.6,0.2 5.4,0.3 3.6,0.2 7.2,0.2 10.8,0 0.9,0.1 1.8,0.1 2.7,0.2 1.4,0.1 2.8,0.1 4.2,0.1 h 1.1 0.3 v 0 0 h 0.1 0.3 0.1 v 0 0 c 0,0 0,0 0,0 0,0 0,0 0.1,0 0.1,0 0.1,0 0.1,0 0.1,0 0.2,0.1 0.3,0.2 0.2,0.1 0.3,0.3 0.4,0.5 0.1,0.1 0.1,0.2 0.1,0.3 0,0.1 0,0.1 0,0.2 0,0 0,0 0,0.1 v 0.3 c 0.1,1.4 0.2,2.8 0.3,4.2 0.1,0.8 0.3,1.5 0.7,2 -4.6,0.1 -9.2,0.3 -13.8,0.4 -5.7,-0.8 -11.5,-1 -17.2,-1.1 0.5,-0.9 0.9,-1.9 1.2,-3 0.3,-0.7 0.4,-1.4 0.5,-2.1 z m 46.2,12.5 c -1.6,9 -2.2,19.8 -2.4,30.9 -0.1,6.7 -0.2,13.3 -0.3,20 l -0.1,5 v 1.2 0.6 0.1 0 0.1 0.3 0.6 c 0,0.2 -0.1,0.3 -0.1,0.4 l -0.1,0.4 -0.1,0.5 c -0.7,2.5 -2.6,4.5 -4.9,5.5 -0.3,0.1 -0.6,0.2 -0.9,0.3 -0.3,0.1 -0.6,0.2 -0.9,0.2 -0.3,0 -0.6,0.1 -0.9,0.1 h -0.5 c -0.2,0 -0.4,0 -0.6,0 h -5 c -3.3,0 -6.7,0 -10,0 -6.7,0 -13.4,0.1 -20.1,0.2 h -2.5 -1.2 -0.6 -0.1 -0.2 -0.3 -0.6 l -0.4,-0.1 c -0.2,0 -0.5,-0.1 -0.8,-0.2 -0.6,-0.2 -1.2,-0.4 -1.7,-0.7 -1.7,-1 -3,-2.5 -3.7,-4.4 -0.3,-0.9 -0.5,-1.9 -0.5,-2.8 v -3.9 c 0,-5.3 0,-10.5 0,-15.8 0,-10.5 -0.2,-21 -0.5,-31.5 -0.1,-4.1 -0.5,-7.7 -1.1,-9.4 1,0.1 2.1,0.2 3.1,0.2 11,0.4 21.9,1.1 33,0.6 1.4,0.1 2.7,0.1 4.1,0.2 7.1,0.2 14.2,0.3 21.2,0 -0.1,0.3 -0.2,0.8 -0.3,1.4 z m -28.3,10.9 c -0.4,7.3 0.6,14.7 -1.1,21.9 0.2,4 0.5,8 0.6,12.1 0,2.5 -0.3,5 -0.5,7.5 -0.1,1.4 -1.1,2.3 -2.3,2.4 -1.4,0.1 -2.1,-1 -2.2,-2.4 -0.6,-4.8 -0.5,-9.5 -0.3,-14.3 0,-0.8 0.1,-1.5 0.2,-2.3 -0.5,-6.1 0.2,-12.1 0.6,-18.2 0.2,-2.5 0.9,-5 2.4,-7 0.5,-0.6 1.1,-1 1.8,-0.7 0.2,0.2 0.8,0.7 0.8,1 z m 16.6,0 c -0.4,7.3 0.6,14.7 -1.1,21.9 0.2,4 0.5,8 0.6,12.1 0,2.5 -0.3,5 -0.5,7.5 -0.1,1.4 -1.1,2.3 -2.3,2.4 -1.4,0.1 -2.1,-1 -2.2,-2.4 -0.6,-4.8 -0.5,-9.5 -0.3,-14.3 0,-0.8 0.1,-1.5 0.2,-2.3 -0.5,-6.1 0.2,-12.1 0.6,-18.2 0.2,-2.5 0.9,-5 2.4,-7 0.5,-0.6 1.1,-1 1.8,-0.7 0.3,0.2 0.8,0.7 0.8,1 z m -33.3,0 c -0.4,7.3 0.6,14.7 -1.1,21.9 0.2,4 0.5,8 0.6,12.1 0,2.5 -0.3,5 -0.5,7.5 -0.1,1.4 -1.1,2.3 -2.3,2.4 -1.4,0.1 -2.1,-1 -2.2,-2.4 -0.6,-4.8 -0.5,-9.5 -0.3,-14.3 0,-0.8 0.1,-1.5 0.2,-2.3 -0.5,-6.1 0.2,-12.1 0.6,-18.2 0.2,-2.5 0.9,-5 2.4,-7 0.5,-0.6 1.1,-1 1.8,-0.7 0.3,0.2 0.8,0.7 0.8,1 z"
     id="path831"
     inkscape:connector-curvature="0" /></svg>