<?xml version="1.0" encoding="UTF-8" standalone="no"?>
<svg
   xmlns:dc="http://purl.org/dc/elements/1.1/"
   xmlns:cc="http://creativecommons.org/ns#"
   xmlns:rdf="http://www.w3.org/1999/02/22-rdf-syntax-ns#"
   xmlns:svg="http://www.w3.org/2000/svg"
   xmlns="http://www.w3.org/2000/svg"
   xmlns:sodipodi="http://sodipodi.sourceforge.net/DTD/sodipodi-0.dtd"
   xmlns:inkscape="http://www.inkscape.org/namespaces/inkscape"
   data-name="Layer 1"
   viewBox="0 0 72.599998 83.845779"
   x="0px"
   y="0px"
   version="1.1"
   id="svg42"
   sodipodi:docname="user2.svg"
   width="72.599998"
   height="83.845779"
   inkscape:version="0.92.3 (2405546, 2018-03-11)">
  <metadata
     id="metadata48">
    <rdf:RDF>
      <cc:Work
         rdf:about="">
        <dc:format>image/svg+xml</dc:format>
        <dc:type
           rdf:resource="http://purl.org/dc/dcmitype/StillImage" />
        <dc:title>04</dc:title>
      </cc:Work>
    </rdf:RDF>
  </metadata>
  <defs
     id="defs46" />
  <sodipodi:namedview
     pagecolor="#ffffff"
     bordercolor="#666666"
     borderopacity="1"
     objecttolerance="10"
     gridtolerance="10"
     guidetolerance="10"
     inkscape:pageopacity="0"
     inkscape:pageshadow="2"
     inkscape:window-width="1920"
     inkscape:window-height="1017"
     id="namedview44"
     showgrid="false"
     fit-margin-top="0"
     fit-margin-left="0"
     fit-margin-right="0"
     fit-margin-bottom="0"
     inkscape:zoom="6.784"
     inkscape:cx="10.577712"
     inkscape:cy="36.114456"
     inkscape:window-x="-8"
     inkscape:window-y="-8"
     inkscape:window-maximized="1"
     inkscape:current-layer="svg42" />
  <title
     id="title30">04</title>
  <g
     data-name="Group"
     id="g36"
     transform="translate(-13.7,-7.2542217)">
    <path
       data-name="Compound Path"
       d="m 65.9,51.6 a 4,4 0 0 0 -4.6,1.3 l -1,1.1 A 14.6,14.6 0 0 1 38.6,52.8 4,4 0 0 0 34.1,51.6 31.8,31.8 0 0 0 13.7,81.2 9.9,9.9 0 0 0 23.6,91.1 H 76.4 A 9.9,9.9 0 0 0 86.3,81.2 31.8,31.8 0 0 0 65.9,51.6 Z M 76.4,83.1 H 23.7 a 1.9,1.9 0 0 1 -1.9,-1.9 23.8,23.8 0 0 1 12.8,-21 22.6,22.6 0 0 0 31,0 23.8,23.8 0 0 1 12.8,21 1.9,1.9 0 0 1 -2,1.9 z"
       id="path32"
       inkscape:connector-curvature="0" />
    <path
       data-name="Compound Path"
       d="M 29.2,29.7 A 20.8,20.8 0 1 0 50,8.9 20.9,20.9 0 0 0 29.2,29.7 Z m 33.7,0 A 12.8,12.8 0 1 1 50,16.9 12.8,12.8 0 0 1 62.8,29.7 Z"
       id="path34"
       inkscape:connector-curvature="0" />
  </g>
  <path
     style="fill:#ffff00;stroke-width:0.14740565"
     d="M 9.5520167,75.716082 C 9.0312841,75.583807 8.617311,75.22552 8.36091,74.685194 8.1517553,74.244434 8.1255749,73.912392 8.2075932,72.740701 8.7719502,64.678453 12.958199,57.778214 19.781591,53.663157 l 1.096567,-0.661319 0.819706,0.736734 c 2.569378,2.309301 6.421386,4.1752 10.327372,5.002542 2.06907,0.438258 6.311705,0.48152 8.32842,0.08492 3.988251,-0.784307 7.803493,-2.56655 10.606827,-4.954847 0.482929,-0.411432 0.950309,-0.748058 1.038618,-0.748058 0.08831,0 0.648346,0.300738 1.244524,0.668306 6.622293,4.082917 10.939061,11.290542 11.297332,18.862944 0.07687,1.624787 0.05849,1.808613 -0.22573,2.256808 -0.61987,0.977506 1.354763,0.914139 -27.899938,0.895315 -14.616033,-0.0094 -26.7045052,-0.0501 -26.8632723,-0.09042 z"
     id="path26"
     inkscape:connector-curvature="0" />
  <path
     style="fill:#ffff00;stroke-width:0.14740565"
     d="m 34.162618,34.970651 c -4.942993,-0.912237 -8.796938,-4.536486 -10.114157,-9.511349 -0.407637,-1.539559 -0.441087,-4.091569 -0.07465,-5.695622 0.95908,-4.198357 3.831718,-7.565647 7.809262,-9.153971 1.47683,-0.589733 2.759954,-0.8183938 4.608584,-0.8212799 5.129677,-0.00801 9.686068,3.0556849 11.676482,7.8512049 0.64018,1.542392 0.931492,3.146128 0.943037,5.191636 0.0085,1.509671 -0.04741,1.958694 -0.381657,3.064316 -1.698361,5.617764 -6.591403,9.292617 -12.286449,9.227571 -0.793881,-0.0091 -1.775083,-0.0777 -2.180448,-0.152506 z"
     id="path28"
     inkscape:connector-curvature="0" />
  <ellipse
     style="fill:#ffff00"
     id="path30"
     cx="37.219929"
     cy="65.862282"
     rx="3.90625"
     ry="3.5377359" />
  <path
     style="fill:#ffff00"
     id="path33"
     sodipodi:type="arc"
     sodipodi:cx="39.209904"
     sodipodi:cy="67.483742"
     sodipodi:rx="11.939858"
     sodipodi:ry="6.043632"
     sodipodi:start="0"
     sodipodi:end="6.2224816"
     d="M 51.149762,67.483742 A 11.939858,6.043632 0 0 1 39.391095,73.526678 11.939858,6.043632 0 0 1 27.275545,67.667149 11.939858,6.043632 0 0 1 38.666496,61.446372 11.939858,6.043632 0 0 1 51.12777,67.117096 L 39.209904,67.483742 Z" />
  <path
     style="fill:#ffff00;stroke-width:0.14740565"
     d="M 26.92552,75.677382 C 7.6573037,75.595875 8.9630043,75.65998 8.5043136,74.77297 7.9248892,73.652486 8.5313108,69.204528 9.7110137,65.922111 11.3484,61.36623 14.762655,57.053708 18.889528,54.328793 c 1.004282,-0.663113 1.869476,-1.20566 1.922653,-1.20566 0.05318,0 0.491811,0.339481 0.974741,0.754403 2.648877,2.275849 6.578119,4.146179 10.38572,4.943632 1.796199,0.376191 6.786959,0.375442 8.522314,-0.0013 3.148081,-0.683401 7.076127,-2.432625 9.31377,-4.147574 0.689122,-0.528149 1.42725,-1.091514 1.640283,-1.251923 l 0.387335,-0.291652 1.286152,0.80747 c 1.655933,1.039627 2.517619,1.725437 4.036503,3.212621 4.273881,4.184684 6.782438,9.608881 7.047381,15.238399 0.102467,2.177254 -0.02771,2.761565 -0.675096,3.03023 -0.436011,0.180943 -9.501078,0.391965 -15.34402,0.357184 -2.067364,-0.01229 -11.725149,-0.05606 -21.461744,-0.09724 z"
     id="path35"
     inkscape:connector-curvature="0" />
  <path
     style="fill:#ffff00;stroke-width:0.14740565"
     d="M 20.881858,75.677961 C 8.1574289,75.595602 8.9613628,75.656805 8.4842292,74.734131 8.1774949,74.140972 8.3056539,71.298178 8.7263514,69.363428 10.151978,62.8071 13.912876,57.427921 19.563426,53.863258 c 0.645268,-0.407068 1.211965,-0.740125 1.259328,-0.740125 0.04736,0 0.481238,0.336626 0.964168,0.748058 2.651793,2.259192 6.836227,4.248271 10.314753,4.90314 1.74895,0.329258 4.617259,0.441649 6.630518,0.25981 4.009523,-0.362143 8.185748,-2.046343 11.741996,-4.735347 l 1.518529,-1.148213 0.445209,0.227587 c 0.893324,0.45666 2.978473,1.962653 4.056648,2.929905 3.168941,2.842917 5.496968,6.339034 6.765064,10.15944 0.811108,2.443636 1.04812,3.665171 1.149077,5.922233 0.09426,2.10728 -0.02629,2.713762 -0.600926,3.023234 -0.692248,0.372814 -13.781914,0.453616 -42.925932,0.264981 z"
     id="path37"
     inkscape:connector-curvature="0" />
  <path
     style="fill:#000000"
     id="path43"
     sodipodi:type="arc"
     sodipodi:cx="36.63031"
     sodipodi:cy="63.946014"
     sodipodi:rx="3.3166273"
     sodipodi:ry="3.2429245"
     sodipodi:start="6.072092"
     sodipodi:end="6.0644467"
     d="m 39.873316,63.266527 a 3.3166273,3.2429245 0 0 1 -2.541879,3.849122 3.3166273,3.2429245 0 0 1 -3.941453,-2.478031 3.3166273,3.2429245 0 0 1 2.526812,-3.858595 3.3166273,3.2429245 0 0 1 3.951113,2.463282 l -3.237599,0.703709 z" />
  <rect
     style="fill:#000000"
     id="rect45"
     width="10.908019"
     height="2.9481132"
     x="46.727592"
     y="60.703087" />
  <rect
     style="fill:#000000"
     id="rect47"
     width="1.1792452"
     height="0.14740565"
     x="52.181602"
     y="63.061577" />
  <path
     style="fill:#000000"
     id="path43-1"
     sodipodi:type="arc"
     sodipodi:cx="36.851414"
     sodipodi:cy="71.463699"
     sodipodi:rx="3.3166273"
     sodipodi:ry="3.2429245"
     sodipodi:start="6.072092"
     sodipodi:end="6.0644467"
     d="m 40.09442,70.784212 a 3.3166273,3.2429245 0 0 1 -2.541879,3.849122 3.3166273,3.2429245 0 0 1 -3.941453,-2.478031 3.3166273,3.2429245 0 0 1 2.526812,-3.858595 3.3166273,3.2429245 0 0 1 3.951112,2.463282 l -3.237598,0.703709 z" />
  <path
     style="fill:#ffffff;stroke-width:0.14740565"
     d="m 33.204481,34.696055 c -4.179529,-1.122326 -7.445951,-4.270498 -8.869235,-8.548157 -0.437576,-1.315129 -0.46644,-1.534921 -0.474267,-3.611439 -0.0095,-2.518465 0.159707,-3.349282 1.085921,-5.33215 0.691916,-1.481277 1.289995,-2.368805 2.353576,-3.492624 2.00035,-2.113643 4.742628,-3.482755 7.559558,-3.7741912 6.384398,-0.6605221 12.039555,3.2045202 13.68934,9.3560402 0.254752,0.949892 0.318938,1.623618 0.330016,3.464033 0.01346,2.235238 0.0032,2.31356 -0.473103,3.611439 -1.489265,4.058146 -4.402337,6.914382 -8.347443,8.184581 -1.522784,0.490288 -5.269105,0.568155 -6.854363,0.142468 z"
     id="path64"
     inkscape:connector-curvature="0" />
  <path
     style="fill:#ffffff;stroke-width:0.14740565"
     d="m 33.176245,34.616816 c -4.206054,-1.01999 -7.980318,-4.954244 -9.043695,-9.427055 -0.247635,-1.041609 -0.278988,-3.864338 -0.05805,-5.226091 0.322882,-1.990075 1.691158,-4.535918 3.357856,-6.247697 2.288168,-2.350058 4.914774,-3.556437 8.130615,-3.734324 3.813521,-0.2109483 6.908343,0.963743 9.581368,3.636767 2.677271,2.677271 3.681449,5.234466 3.684028,9.381584 8.85e-4,1.408377 -0.0654,2.005717 -0.310724,2.800707 -0.864491,2.801409 -2.841907,5.511878 -5.190131,7.114173 -1.04657,0.714122 -2.788896,1.479481 -3.90794,1.71666 -1.280109,0.271315 -5.100966,0.262304 -6.243328,-0.01473 z"
     id="path66"
     inkscape:connector-curvature="0" />
  <path
     style="fill:#008000;stroke:#000000;stroke-width:2.87804985;stroke-linejoin:round;stroke-miterlimit:4;stroke-dasharray:none;stroke-opacity:1"
     id="path68"
     sodipodi:type="arc"
     sodipodi:cx="36.410461"
     sodipodi:cy="20.526842"
     sodipodi:rx="20.784918"
     sodipodi:ry="19.390137"
     sodipodi:start="3.136814"
     sodipodi:end="6.2748495"
     d="M 15.625781,20.619501 A 20.784918,19.390137 0 0 1 36.274171,1.1371223 20.784918,19.390137 0 0 1 57.194657,20.365212"
     transform="matrix(0.99996534,0.0083257,0,1,0,0)"
     sodipodi:open="true" />
  <rect
     style="fill:#008000;stroke:#000000;stroke-width:2.87800002;stroke-linejoin:round;stroke-miterlimit:4;stroke-dasharray:none;stroke-opacity:1"
     id="rect4600"
     width="45.695755"
     height="6.3384433"
     x="13.561321"
     y="17.513229" />
</svg>
