<?xml version="1.0" encoding="UTF-8" standalone="no"?>
<svg
   xmlns:dc="http://purl.org/dc/elements/1.1/"
   xmlns:cc="http://creativecommons.org/ns#"
   xmlns:rdf="http://www.w3.org/1999/02/22-rdf-syntax-ns#"
   xmlns:svg="http://www.w3.org/2000/svg"
   xmlns="http://www.w3.org/2000/svg"
   xmlns:sodipodi="http://sodipodi.sourceforge.net/DTD/sodipodi-0.dtd"
   xmlns:inkscape="http://www.inkscape.org/namespaces/inkscape"
   data-name="Layer 1"
   viewBox="0 0 72.599998 82.199997"
   x="0px"
   y="0px"
   version="1.1"
   id="svg42"
   sodipodi:docname="user.svg"
   width="72.599998"
   height="82.199997"
   inkscape:version="0.92.3 (2405546, 2018-03-11)">
  <metadata
     id="metadata48">
    <rdf:RDF>
      <cc:Work
         rdf:about="">
        <dc:format>image/svg+xml</dc:format>
        <dc:type
           rdf:resource="http://purl.org/dc/dcmitype/StillImage" />
        <dc:title>04</dc:title>
      </cc:Work>
    </rdf:RDF>
  </metadata>
  <defs
     id="defs46" />
  <sodipodi:namedview
     pagecolor="#ffffff"
     bordercolor="#666666"
     borderopacity="1"
     objecttolerance="10"
     gridtolerance="10"
     guidetolerance="10"
     inkscape:pageopacity="0"
     inkscape:pageshadow="2"
     inkscape:window-width="1920"
     inkscape:window-height="1017"
     id="namedview44"
     showgrid="false"
     fit-margin-top="0"
     fit-margin-left="0"
     fit-margin-right="0"
     fit-margin-bottom="0"
     inkscape:zoom="6.784"
     inkscape:cx="36.3"
     inkscape:cy="28.6"
     inkscape:window-x="-8"
     inkscape:window-y="-8"
     inkscape:window-maximized="1"
     inkscape:current-layer="svg42" />
  <title
     id="title30">04</title>
  <g
     data-name="Group"
     id="g36"
     transform="translate(-13.7,-8.9)">
    <path
       data-name="Compound Path"
       d="m 65.9,51.6 a 4,4 0 0 0 -4.6,1.3 l -1,1.1 A 14.6,14.6 0 0 1 38.6,52.8 4,4 0 0 0 34.1,51.6 31.8,31.8 0 0 0 13.7,81.2 9.9,9.9 0 0 0 23.6,91.1 H 76.4 A 9.9,9.9 0 0 0 86.3,81.2 31.8,31.8 0 0 0 65.9,51.6 Z M 76.4,83.1 H 23.7 a 1.9,1.9 0 0 1 -1.9,-1.9 23.8,23.8 0 0 1 12.8,-21 22.6,22.6 0 0 0 31,0 23.8,23.8 0 0 1 12.8,21 1.9,1.9 0 0 1 -2,1.9 z"
       id="path32"
       inkscape:connector-curvature="0" />
    <path
       data-name="Compound Path"
       d="M 29.2,29.7 A 20.8,20.8 0 1 0 50,8.9 20.9,20.9 0 0 0 29.2,29.7 Z m 33.7,0 A 12.8,12.8 0 1 1 50,16.9 12.8,12.8 0 0 1 62.8,29.7 Z"
       id="path34"
       inkscape:connector-curvature="0" />
  </g>
</svg>
